<svg xmlns="http://www.w3.org/2000/svg" id="Layer_2" data-name="Layer 2" viewBox="0 0 502.65 144.38"><defs><style>      .cls-1 {        fill: #fff;      }    </style></defs><g id="Layer_1-2" data-name="Layer 1"><g><path class="cls-1" d="M0,0h31.58s-.43,1.55-.43,1.55c-3.13.13-6.91,1.29-8.43,4.29-.28.55-1.23,3.62-1.23,4.04v19.96L45.54,7.6c2.62-3.98-1.63-5.94-5.2-6.06l-.43-1.54h21.49l-.43,1.54c-2.65.22-4.9,1.01-6.99,2.66l-21.49,18.82,26.48,31.38c3.5,3.22,7.44,5.86,12.26,6.53l.26,1.36h-32.9c-.56-2.11,2.33-1.43,3.95-1.97,1.17-.39,2.78-1.43,2.98-2.73.37-2.37-6.87-10.83-8.71-13.05-4.01-4.86-8.62-9.27-12.49-14.26l-2.84,3.29c1.16,9.71-4.69,26.97,10.08,27.41v1.3s-31.58,0-31.58,0v-1.32c6.1-.44,9.63-2.59,10.11-8.97,1.04-13.93-.73-29.26-.12-43.34C8.91,3.54,4.87,1.72,0,1.32V0Z"></path><path class="cls-1" d="M502.65,1.32c-3.7.42-7.3,1.06-9.13,4.69-1.24,2.46-.85,4.73-1.41,7.36l.02,48.93c-2.26.36-2.79-.34-4.17-1.75-12.48-12.8-24.48-28.89-36.39-42.56-2.47-2.83-4.94-5.76-7.68-8.33v43.2c0,.2,1.02,3.2,1.23,3.6,1.67,3.22,5.53,4.26,8.86,4.52v1.31s-22.81,0-22.81,0v-1.31c5.18-.26,9.22-2.29,9.97-7.79-.57-13.79,1.15-28.8.13-42.45-.47-6.32-3.77-8.66-9.85-9.37l-.26-1.35h19.08l39.69,46.49V11.18c0-.33-.58-3.12-.74-3.65-1.36-4.65-5.17-5.68-9.53-6.18l-.26-1.35h23.25s0,1.31,0,1.31Z"></path><path class="cls-1" d="M275.01,46.05V8.55c0-.14-.82-2.18-.99-2.52-1.69-3.52-5.33-4.14-8.85-4.67l-.26-1.36h23.25v1.31c-4.26.47-8.16,1.33-9.75,5.83-.16.45-.78,2.92-.78,3.17v51.98l-2.98-.1-45.27-52.54v43.64c0,.16.82,2.6.99,2.96,1.65,3.53,5.5,4.44,9.1,4.72v1.31h-22.81v-1.31c6.92-.5,9.64-3.51,10.11-10.3.91-13.14-.62-27.43-.14-40.69-.69-5.72-3.86-8.14-9.54-8.44l-.43-1.55h19.08l39.26,46.05Z"></path><path class="cls-1" d="M102.2,0l-.26,1.36c-4.78.38-8.68,2.33-9.73,7.3.72,12.7-1.36,27.27-.05,39.75,1.52,14.61,17.96,15.85,29.01,11.13,5.11-2.18,8.44-5.39,9.04-11.13.97-9.28.81-27.81.07-37.24-.49-6.27-3.27-9.3-9.68-9.62l-.43-1.55h22.81l-.43,1.55c-4.79.12-8.83,2.55-9.55,7.56-1.52,10.62.58,24.72-.1,35.87-.54,8.88-2.92,13.33-11.43,16.64-10.01,3.9-32.37,3.86-38.5-6.66-5.05-8.67-.87-34.11-2.39-45.41-.72-5.37-4.32-7.79-9.55-8l-.43-1.55h31.58Z"></path><path class="cls-1" d="M357.69,0l.66,1.1.44,16.01-1.52-.45c-.71-2.57-1.55-5.67-3.11-7.86-5.16-7.27-16.36-6.75-24.32-7.05v47.15c0,1.22.58,5.25.99,6.46,1.39,4.09,5.6,5.36,9.54,5.6v1.31h-32.02v-1.31c3.44-.14,7.6-1.19,9.3-4.52.28-.55,1.23-3.62,1.23-4.04V1.75c-6.71.58-15.95-.35-21.28,4.38-3.04,2.7-4.83,6.99-5.52,10.92l-1.7.05.88-17.11h66.45Z"></path><path class="cls-1" d="M357.91,62.28v-1.31c7.69-.48,10.82-7.65,13.67-13.75,7.13-15.2,12.72-31.6,19.61-46.96h3.6s24.16,53.81,24.16,53.81c1.94,3.35,3.49,5.17,7.36,6.24,1.64.45,4.53-.09,3.96,1.96h-32.9v-1.31c5.97-.71,10.63-2.2,8.53-9.2-1.4-4.66-4.51-9.41-6.11-14.07l-20.64-.46-.69.3c-1.18,4.61-6.15,11.97-6.05,16.57.09,3.96,3.96,6.51,7.6,6.8l.26,1.36h-22.37ZM398.7,35.09l-9.87-22.37-9.43,22.37h19.3Z"></path><path class="cls-1" d="M143.43,62.28v-1.31c5.63-.31,8.97-4.85,11.48-9.36L176.54.43l3.78-.18c5.77,13.18,11.4,26.45,17.42,39.51,2.18,4.74,6.68,16.53,10.63,19.19,2.1,1.41,4.37,1.38,6.73,1.96l.26,1.36h-32.46v-1.31c6.96-.86,10.71-2.56,8.11-10.09-1.52-4.4-4.29-8.89-5.87-13.33l-.69-.3c-2.81.47-19.53-.69-20.65.46-.36.37-3.61,8.34-4.05,9.55-2.67,7.33-3.02,12.23,6.04,13.72v1.31h-22.37ZM183.78,35.09l-9.22-22.37-9.64,22.37h18.86Z"></path><path class="cls-1" d="M291.42,112.28c-4.35-2.93-9.25-5.95-10.84-11.3-3.26-10.94,4.04-19.92,15.02-20.7,20.58-1.48,27.09,19.5,8.55,28.72,6.19,3.49,12.43,7.84,13.47,15.47,1.48,10.78-6.25,19.03-16.78,19.84-23.07,1.76-32.27-23.4-9.42-32.02ZM293.93,82.13c-4.51.77-7.65,5.89-7.81,10.2-.31,8.53,7.93,13.41,15.1,15.49,10.02-7.18,7.63-28.24-7.29-25.68ZM294.34,113.25c-13.11,7.2-11.73,31.08,6.07,29.29,8.11-.81,11.48-9.61,9.31-16.76-2.01-6.62-9.53-10.05-15.38-12.53Z"></path><path class="cls-1" d="M263.63,85.25c8.14,8.12,1.7,19.7-7.29,23.75,5.02,2.97,9.89,5.82,12.21,11.47,4.84,11.8-3.35,22.91-15.51,23.83-23.1,1.76-32.31-23.37-9.42-32.02-3.44-2.47-7-4.27-9.3-8.02-11.38-18.58,16.23-32.07,29.32-19.01ZM246.13,82.13c-4.51.77-7.65,5.89-7.81,10.2-.31,8.55,7.87,13.45,15.1,15.49,9.95-7.13,7.67-28.25-7.29-25.68ZM246.53,113.25c-7,4.35-10.55,12.56-8.06,20.62,3.75,12.13,22.24,11.69,23.96-1.23,1.45-10.85-7.22-15.93-15.9-19.39Z"></path><path class="cls-1" d="M206.33,81.14v52.41c0,.52.81,3.53,1.09,4.17,1.44,3.29,5.79,4.11,9,4.39v1.31h-28.07v-1.31c3.62.19,9.65-2.07,9.65-6.36v-47.59c-3.02.93-6.15.28-9.21,0v-1.31c2.66-.02,5.6-.45,8.13-1.3,3.42-1.15,6.03-3.97,9.41-4.4Z"></path></g></g></svg>